<svg width="300" height="200" viewBox="0 0 300 200" xmlns="http://www.w3.org/2000/svg">
    <rect width="300" height="200" fill="#cfdbe6" />
    <g filter="url(#sp1)">
        <text x="20" y="45" font-family="monospace" font-size="42">glitchy</text>
        <text x="20" y="90" font-family="monospace" font-size="42">text</text>
        <g transform="translate(190, 100) scale(4)">
            <path fill-rule="evenodd" clip-rule="evenodd" d="m10.6 1.1 3.3 3.3.1.4v9.7l-.5.5h-11l-.5-.5v-13l.5-.5h7.7l.4.1zm-.6 3.9h3l-3-3v3zm-7-3v12h10v-8h-3.5l-.5-.5v-3.5h-6zm2.1 7.5 1.8-1.8-.7-.7-2.2 2.2v.7l2.2 2.2.7-.7-1.8-1.9zm3.7-1.8.7-.7 2.2 2.2v.7l-2.2 2.2-.7-.7 1.8-1.9-1.8-1.8z" fill="#424242"/>
        </g>
    </g>
    <filter id="sp1">
        <feTurbulence type="turbulence" baseFrequency="0.02 .8" numOctaves="2" result="turbulence"></feTurbulence>
        <feDisplacementMap in2="turbulence" in="SourceGraphic" scale="4" xChannelSelector="R"></feDisplacementMap>
        <feDropShadow dx="0" dy="0" stdDeviation="5" flood-color="#088"></feDropShadow>
        <feDropShadow dx="0" dy="0" stdDeviation="6" flood-color="#088"></feDropShadow>
    </filter>
</svg>